<svg xmlns="http://www.w3.org/2000/svg" viewBox="0 0 800 600">
  <!-- Background with rounded corners -->
  <rect width="800" height="600" rx="15" ry="15" fill="#f7f7f7" />
  
  <!-- Header -->
  <rect x="40" y="40" width="720" height="60" rx="10" ry="10" fill="#ffffff" />
  <rect x="60" y="55" width="30" height="30" rx="5" ry="5" fill="#000000" />
  <rect x="680" y="55" width="60" height="30" rx="15" ry="15" fill="#000000" />
  <rect x="500" y="55" width="50" height="30" rx="5" ry="5" fill="#ffffff" />
  <rect x="560" y="55" width="50" height="30" rx="5" ry="5" fill="#ffffff" />
  <rect x="620" y="55" width="50" height="30" rx="5" ry="5" fill="#ffffff" />
  
  <!-- Hero Section -->
  <rect x="40" y="130" width="720" height="280" rx="15" ry="15" fill="#ffffff" />
  <rect x="60" y="170" width="300" height="60" fill="#000000" rx="5" ry="5" />
  <rect x="60" y="240" width="400" height="20" fill="#666666" rx="5" ry="5" />
  <rect x="60" y="270" width="350" height="20" fill="#666666" rx="5" ry="5" />
  <rect x="60" y="320" width="160" height="50" rx="25" ry="25" fill="#000000" />
  <rect x="240" y="320" width="160" height="50" rx="25" ry="25" fill="#ffffff" stroke="#000000" stroke-width="2" />
  
  <!-- Decorative Elements -->
  <circle cx="650" cy="220" r="80" fill="#f0f0f0" />
  <rect x="600" y="200" width="80" height="80" rx="10" ry="10" fill="#e0e0e0" />
  
  <!-- Portfolio Grid -->
  <rect x="40" y="440" width="230" height="140" rx="15" ry="15" fill="#ffffff" />
  <rect x="55" y="455" width="200" height="100" rx="10" ry="10" fill="#f0f0f0" />
  <rect x="55" y="565" width="100" height="10" fill="#000000" rx="3" ry="3" />
  
  <rect x="285" y="440" width="230" height="140" rx="15" ry="15" fill="#ffffff" />
  <rect x="300" y="455" width="200" height="100" rx="10" ry="10" fill="#f0f0f0" />
  <rect x="300" y="565" width="100" height="10" fill="#000000" rx="3" ry="3" />
  
  <rect x="530" y="440" width="230" height="140" rx="15" ry="15" fill="#ffffff" />
  <rect x="545" y="455" width="200" height="100" rx="10" ry="10" fill="#f0f0f0" />
  <rect x="545" y="565" width="100" height="10" fill="#000000" rx="3" ry="3" />
</svg>
