<svg xmlns="http://www.w3.org/2000/svg" viewBox="0 0 800 600">
  <!-- Background with rounded corners -->
  <rect width="800" height="600" rx="15" ry="15" fill="#f0f5ff" />
  
  <!-- Header -->
  <rect x="40" y="40" width="720" height="70" rx="10" ry="10" fill="#ffffff" />
  <rect x="60" y="55" width="120" height="40" fill="#1a73e8" rx="5" ry="5" opacity="0.2" />
  <rect x="65" y="60" width="110" height="30" fill="#1a73e8" rx="4" ry="4" />
  <circle cx="720" cy="75" r="20" fill="#ffffff" stroke="#1a73e8" stroke-width="2" />
  <rect x="600" y="65" width="80" height="30" rx="15" ry="15" fill="#1a73e8" />
  <rect x="500" y="65" width="80" height="30" rx="15" ry="15" fill="#ffffff" stroke="#1a73e8" stroke-width="2" />
  
  <!-- Main Content -->
  <rect x="40" y="140" width="350" height="420" rx="15" ry="15" fill="#ffffff" />
  <rect x="60" y="170" width="250" height="40" fill="#333333" rx="5" ry="5" />
  <rect x="60" y="220" width="310" height="15" fill="#666666" rx="3" ry="3" />
  <rect x="60" y="245" width="290" height="15" fill="#666666" rx="3" ry="3" />
  <rect x="60" y="270" width="280" height="15" fill="#666666" rx="3" ry="3" />
  
  <rect x="60" y="310" width="140" height="45" rx="22.5" ry="22.5" fill="#1a73e8" />
  <rect x="220" y="310" width="140" height="45" rx="22.5" ry="22.5" fill="#ffffff" stroke="#1a73e8" stroke-width="2" />
  
  <rect x="60" y="390" width="310" height="60" rx="10" ry="10" fill="#f5f7fa" />
  <rect x="80" y="410" width="200" height="20" fill="#666666" rx="3" ry="3" opacity="0.7" />
  
  <rect x="60" y="470" width="310" height="60" rx="10" ry="10" fill="#f5f7fa" />
  <rect x="80" y="490" width="180" height="20" fill="#666666" rx="3" ry="3" opacity="0.7" />
  
  <!-- Dashboard Preview -->
  <rect x="420" y="140" width="340" height="420" rx="15" ry="15" fill="#ffffff" />
  
  <!-- Dashboard Header -->
  <rect x="440" y="160" width="300" height="40" fill="#f5f7fa" rx="5" ry="5" />
  <circle cx="460" cy="180" r="10" fill="#1a73e8" />
  <rect x="480" y="175" width="80" height="10" fill="#333333" rx="3" ry="3" />
  <circle cx="700" cy="180" r="10" fill="#f5f7fa" stroke="#1a73e8" stroke-width="2" />
  <circle cx="670" cy="180" r="10" fill="#f5f7fa" stroke="#1a73e8" stroke-width="2" />
  
  <!-- Dashboard Stats -->
  <rect x="440" y="220" width="140" height="90" rx="10" ry="10" fill="#e8f0fe" />
  <rect x="460" y="240" width="80" height="10" fill="#1a73e8" rx="3" ry="3" opacity="0.7" />
  <rect x="460" y="260" width="100" height="30" fill="#1a73e8" rx="3" ry="3" />
  
  <rect x="600" y="220" width="140" height="90" rx="10" ry="10" fill="#fef8e8" />
  <rect x="620" y="240" width="80" height="10" fill="#fbbc04" rx="3" ry="3" opacity="0.7" />
  <rect x="620" y="260" width="100" height="30" fill="#fbbc04" rx="3" ry="3" />
  
  <rect x="440" y="330" width="140" height="90" rx="10" ry="10" fill="#e6f4ea" />
  <rect x="460" y="350" width="80" height="10" fill="#34a853" rx="3" ry="3" opacity="0.7" />
  <rect x="460" y="370" width="100" height="30" fill="#34a853" rx="3" ry="3" />
  
  <rect x="600" y="330" width="140" height="90" rx="10" ry="10" fill="#fce8e6" />
  <rect x="620" y="350" width="80" height="10" fill="#ea4335" rx="3" ry="3" opacity="0.7" />
  <rect x="620" y="370" width="100" height="30" fill="#ea4335" rx="3" ry="3" />
  
  <!-- Dashboard Chart -->
  <rect x="440" y="440" width="300" height="100" rx="10" ry="10" fill="#f5f7fa" />
  <rect x="460" y="460" width="100" height="15" fill="#333333" rx="3" ry="3" />
  <polyline points="460,510 480,490 500,500 520,480 540,485 560,470 580,490 600,475 620,460 640,480 660,465" 
            fill="none" stroke="#1a73e8" stroke-width="3" />
</svg>
