<svg xmlns="http://www.w3.org/2000/svg" viewBox="0 0 800 600">
  <!-- Background with rounded corners and gradient -->
  <defs>
    <linearGradient id="bg-gradient" x1="0%" y1="0%" x2="100%" y2="100%">
      <stop offset="0%" stop-color="#4158D0" />
      <stop offset="50%" stop-color="#C850C0" />
      <stop offset="100%" stop-color="#FFCC70" />
    </linearGradient>
  </defs>
  
  <rect width="800" height="600" rx="15" ry="15" fill="#f6f9fc" />
  
  <!-- Header -->
  <rect x="40" y="40" width="720" height="70" rx="10" ry="10" fill="#ffffff" />
  <rect x="60" y="55" width="40" height="40" rx="8" ry="8" fill="url(#bg-gradient)" />
  <rect x="500" y="65" width="60" height="20" rx="5" ry="5" fill="#ffffff" />
  <rect x="570" y="65" width="60" height="20" rx="5" ry="5" fill="#ffffff" />
  <rect x="640" y="65" width="60" height="20" rx="5" ry="5" fill="#ffffff" />
  <rect x="710" y="65" width="30" height="20" rx="5" ry="5" fill="#ffffff" />
  
  <!-- Hero Section -->
  <rect x="40" y="140" width="350" height="300" rx="15" ry="15" fill="#ffffff" />
  <rect x="60" y="170" width="250" height="40" fill="#333333" rx="5" ry="5" />
  <rect x="60" y="220" width="310" height="15" fill="#666666" rx="3" ry="3" />
  <rect x="60" y="245" width="290" height="15" fill="#666666" rx="3" ry="3" />
  <rect x="60" y="270" width="280" height="15" fill="#666666" rx="3" ry="3" />
  
  <rect x="60" y="310" width="160" height="50" rx="25" ry="25" fill="url(#bg-gradient)" />
  <rect x="60" y="380" width="120" height="10" fill="#888888" rx="5" ry="5" />
  <rect x="60" y="400" width="100" height="10" fill="#888888" rx="5" ry="5" />
  
  <!-- App Mockup -->
  <rect x="420" y="140" width="340" height="300" rx="15" ry="15" fill="#ffffff" />
  <rect x="460" y="160" width="260" height="420" rx="25" ry="25" fill="#f3f4f6" stroke="#e0e0e0" stroke-width="2" />
  
  <!-- Phone Screen -->
  <rect x="475" y="180" width="230" height="380" rx="15" ry="15" fill="#ffffff" stroke="#e0e0e0" stroke-width="1" />
  
  <!-- App UI Elements -->
  <rect x="485" y="200" width="210" height="50" rx="10" ry="10" fill="url(#bg-gradient)" opacity="0.8" />
  <circle cx="515" cy="225" r="15" fill="#ffffff" />
  <rect x="540" y="220" width="120" height="10" fill="#ffffff" rx="5" ry="5" />
  
  <rect x="485" y="260" width="210" height="70" rx="10" ry="10" fill="#f6f9fc" />
  <rect x="505" y="275" width="130" height="10" fill="#333333" rx="5" ry="5" />
  <rect x="505" y="295" width="170" height="10" fill="#666666" rx="5" ry="5" />
  <rect x="505" y="315" width="80" height="8" fill="#999999" rx="4" ry="4" />
  
  <rect x="485" y="340" width="210" height="70" rx="10" ry="10" fill="#f6f9fc" />
  <rect x="505" y="355" width="130" height="10" fill="#333333" rx="5" ry="5" />
  <rect x="505" y="375" width="170" height="10" fill="#666666" rx="5" ry="5" />
  <rect x="505" y="395" width="80" height="8" fill="#999999" rx="4" ry="4" />
  
  <rect x="485" y="420" width="210" height="70" rx="10" ry="10" fill="#f6f9fc" />
  <rect x="505" y="435" width="130" height="10" fill="#333333" rx="5" ry="5" />
  <rect x="505" y="455" width="170" height="10" fill="#666666" rx="5" ry="5" />
  <rect x="505" y="475" width="80" height="8" fill="#999999" rx="4" ry="4" />
  
  <!-- Bottom Section -->
  <rect x="40" y="470" width="720" height="100" rx="15" ry="15" fill="#ffffff" />
  <rect x="60" y="490" width="150" height="20" fill="#333333" rx="5" ry="5" />
  
  <rect x="60" y="530" width="160" height="10" fill="#666666" rx="5" ry="5" />
  <rect x="240" y="530" width="160" height="10" fill="#666666" rx="5" ry="5" />
  <rect x="420" y="530" width="160" height="10" fill="#666666" rx="5" ry="5" />
  <rect x="600" y="530" width="160" height="10" fill="#666666" rx="5" ry="5" />
</svg>
