<svg xmlns="http://www.w3.org/2000/svg" viewBox="0 0 800 600">
  <!-- Background with rounded corners -->
  <rect width="800" height="600" rx="15" ry="15" fill="#fafafa" />
  
  <!-- Header -->
  <rect x="40" y="40" width="720" height="70" rx="10" ry="10" fill="#ffffff" />
  <circle cx="90" cy="75" r="25" fill="#ff6b6b" />
  <rect x="500" y="60" width="60" height="30" rx="5" ry="5" fill="#ffffff" stroke="#333333" stroke-width="1" />
  <rect x="570" y="60" width="60" height="30" rx="5" ry="5" fill="#ffffff" stroke="#333333" stroke-width="1" />
  <rect x="640" y="60" width="100" height="30" rx="15" ry="15" fill="#ff6b6b" />
  
  <!-- Hero Section -->
  <rect x="40" y="130" width="720" height="180" rx="15" ry="15" fill="#ffe0e0" />
  <rect x="60" y="160" width="320" height="40" fill="#333333" rx="5" ry="5" />
  <rect x="60" y="210" width="280" height="20" fill="#666666" rx="5" ry="5" />
  <rect x="60" y="240" width="240" height="20" fill="#666666" rx="5" ry="5" />
  <rect x="60" y="280" width="160" height="40" rx="20" ry="20" fill="#ff6b6b" />
  
  <!-- Product Showcase -->
  <rect x="40" y="340" width="230" height="240" rx="15" ry="15" fill="#ffffff" />
  <rect x="60" y="360" width="190" height="150" rx="10" ry="10" fill="#f2f2f2" />
  <rect x="60" y="520" width="120" height="20" fill="#333333" rx="3" ry="3" />
  <rect x="60" y="550" width="80" height="20" fill="#ff6b6b" rx="3" ry="3" />
  <circle cx="210" cy="550" r="15" fill="#ffffff" stroke="#ff6b6b" stroke-width="2" />
  
  <rect x="285" y="340" width="230" height="240" rx="15" ry="15" fill="#ffffff" />
  <rect x="305" y="360" width="190" height="150" rx="10" ry="10" fill="#f2f2f2" />
  <rect x="305" y="520" width="120" height="20" fill="#333333" rx="3" ry="3" />
  <rect x="305" y="550" width="80" height="20" fill="#ff6b6b" rx="3" ry="3" />
  <circle cx="455" cy="550" r="15" fill="#ffffff" stroke="#ff6b6b" stroke-width="2" />
  
  <rect x="530" y="340" width="230" height="240" rx="15" ry="15" fill="#ffffff" />
  <rect x="550" y="360" width="190" height="150" rx="10" ry="10" fill="#f2f2f2" />
  <rect x="550" y="520" width="120" height="20" fill="#333333" rx="3" ry="3" />
  <rect x="550" y="550" width="80" height="20" fill="#ff6b6b" rx="3" ry="3" />
  <circle cx="700" cy="550" r="15" fill="#ffffff" stroke="#ff6b6b" stroke-width="2" />
  
  <!-- Sale Badge -->
  <circle cx="235" cy="375" r="25" fill="#ff6b6b" />
  <text x="235" y="380" font-family="Arial" font-size="12" text-anchor="middle" fill="#ffffff">SALE</text>
  
  <!-- Hero Image -->
  <ellipse cx="620" cy="210" rx="100" ry="80" fill="#ff6b6b" opacity="0.3" />
  <ellipse cx="600" cy="190" rx="80" ry="60" fill="#ff6b6b" opacity="0.5" />
</svg>
