<svg xmlns="http://www.w3.org/2000/svg" viewBox="0 0 800 600">
  <!-- Background -->
  <rect width="800" height="600" fill="#f3f3f3" rx="15" ry="15"/>
  
  <!-- Left Side Navigation -->
  <rect x="0" y="0" width="200" height="600" fill="#181818" rx="15" ry="0"/>
  
  <!-- Logo/Name -->
  <text x="40" y="80" font-family="Arial" font-size="18" font-weight="bold" fill="#ffffff">SARAH LEE</text>
  
  <!-- Menu Items -->
  <rect x="40" y="140" width="120" height="3" fill="#ffffff"/>
  <text x="40" y="180" font-family="Arial" font-size="14" fill="#ffffff">HOME</text>
  <text x="40" y="220" font-family="Arial" font-size="14" fill="#aaaaaa">PROJECTS</text>
  <text x="40" y="260" font-family="Arial" font-size="14" fill="#aaaaaa">ABOUT</text>
  <text x="40" y="300" font-family="Arial" font-size="14" fill="#aaaaaa">RESUME</text>
  <text x="40" y="340" font-family="Arial" font-size="14" fill="#aaaaaa">CONTACT</text>
  
  <!-- Social Links -->
  <circle cx="55" cy="500" r="15" fill="none" stroke="#ffffff" stroke-width="1"/>
  <circle cx="95" cy="500" r="15" fill="none" stroke="#ffffff" stroke-width="1"/>
  <circle cx="135" cy="500" r="15" fill="none" stroke="#ffffff" stroke-width="1"/>
  
  <!-- Main Content Area -->
  <!-- Intro Section -->
  <text x="250" y="100" font-family="Arial" font-size="36" font-weight="bold" fill="#181818">Product Designer</text>
  <text x="250" y="150" font-family="Arial" font-size="16" fill="#555555">Focusing on user experience and interface design for</text>
  <text x="250" y="175" font-family="Arial" font-size="16" fill="#555555">digital products that make a difference.</text>
  
  <!-- Featured Project -->
  <rect x="250" y="220" width="500" height="280" fill="#ffffff" rx="10" ry="10" stroke="#eeeeee" stroke-width="1"/>
  
  <text x="280" y="260" font-family="Arial" font-size="18" font-weight="bold" fill="#181818">FEATURED PROJECT</text>
  <text x="580" y="260" font-family="Arial" font-size="14" fill="#888888">UI/UX Design</text>
  
  <!-- Project Visual Placeholder -->
  <rect x="280" y="280" width="440" height="180" fill="#e2e2e2" rx="5" ry="5"/>
  
  <!-- Visual Elements inside Project -->
  <rect x="310" y="310" width="180" height="120" fill="#ffffff" rx="5" ry="5"/>
  <circle cx="510" cy="370" r="60" fill="#ffffff"/>
  <rect x="600" y="330" width="80" height="80" fill="#ffffff" rx="5" ry="5"/>
  
  <text x="280" y="490" font-family="Arial" font-size="16" font-weight="bold" fill="#181818">Healthcare Mobile Application</text>
  
  <!-- Work Stats -->
  <rect x="250" y="520" width="150" height="60" fill="#ffffff" rx="5" ry="5" stroke="#eeeeee" stroke-width="1"/>
  <text x="270" y="550" font-family="Arial" font-size="12" fill="#888888">YEARS EXPERIENCE</text>
  <text x="270" y="570" font-family="Arial" font-size="18" font-weight="bold" fill="#181818">6+</text>
  
  <rect x="420" y="520" width="150" height="60" fill="#ffffff" rx="5" ry="5" stroke="#eeeeee" stroke-width="1"/>
  <text x="440" y="550" font-family="Arial" font-size="12" fill="#888888">PROJECTS COMPLETED</text>
  <text x="440" y="570" font-family="Arial" font-size="18" font-weight="bold" fill="#181818">32</text>
  
  <rect x="590" y="520" width="150" height="60" fill="#ffffff" rx="5" ry="5" stroke="#eeeeee" stroke-width="1"/>
  <text x="610" y="550" font-family="Arial" font-size="12" fill="#888888">SATISFIED CLIENTS</text>
  <text x="610" y="570" font-family="Arial" font-size="18" font-weight="bold" fill="#181818">25+</text>
</svg>
