<svg xmlns="http://www.w3.org/2000/svg" viewBox="0 0 800 600">
  <!-- Background with rounded corners -->
  <rect width="800" height="600" rx="15" ry="15" fill="#f8f9fa" />
  
  <!-- Header -->
  <rect x="40" y="40" width="720" height="80" rx="10" ry="10" fill="#ffffff" />
  <rect x="60" y="60" width="120" height="40" fill="#6200ee" rx="5" ry="5" />
  <circle cx="700" cy="80" r="20" fill="#ff4081" />
  <circle cx="650" cy="80" r="20" fill="#ffffff" stroke="#333333" stroke-width="2" />
  <circle cx="600" cy="80" r="20" fill="#ffffff" stroke="#333333" stroke-width="2" />
  
  <!-- Hero Section -->
  <rect x="40" y="150" width="720" height="300" rx="15" ry="15" fill="#ffffff" />
  <rect x="60" y="170" width="280" height="40" fill="#333333" rx="5" ry="5" />
  <rect x="60" y="220" width="400" height="20" fill="#666666" rx="5" ry="5" />
  <rect x="60" y="250" width="350" height="20" fill="#666666" rx="5" ry="5" />
  <rect x="60" y="290" width="160" height="50" fill="#6200ee" rx="25" ry="25" />
  <rect x="240" y="290" width="160" height="50" fill="#ffffff" stroke="#6200ee" stroke-width="2" rx="25" ry="25" />
  
  <!-- Graphic -->
  <rect x="500" y="170" width="240" height="240" rx="15" ry="15" fill="#f2f2f2" />
  <circle cx="620" cy="290" r="100" fill="#ff4081" opacity="0.7" />
  <circle cx="580" cy="230" r="60" fill="#6200ee" opacity="0.7" />
  
  <!-- Portfolio Section -->
  <rect x="40" y="480" width="230" height="80" rx="10" ry="10" fill="#ffffff" />
  <rect x="60" y="500" width="80" height="12" fill="#333333" rx="3" ry="3" />
  <rect x="60" y="525" width="190" height="10" fill="#666666" rx="3" ry="3" />
  <rect x="60" y="540" width="160" height="10" fill="#666666" rx="3" ry="3" />
  
  <rect x="285" y="480" width="230" height="80" rx="10" ry="10" fill="#ffffff" />
  <rect x="305" y="500" width="80" height="12" fill="#333333" rx="3" ry="3" />
  <rect x="305" y="525" width="190" height="10" fill="#666666" rx="3" ry="3" />
  <rect x="305" y="540" width="160" height="10" fill="#666666" rx="3" ry="3" />
  
  <rect x="530" y="480" width="230" height="80" rx="10" ry="10" fill="#ffffff" />
  <rect x="550" y="500" width="80" height="12" fill="#333333" rx="3" ry="3" />
  <rect x="550" y="525" width="190" height="10" fill="#666666" rx="3" ry="3" />
  <rect x="550" y="540" width="160" height="10" fill="#666666" rx="3" ry="3" />
</svg>
