<svg viewBox="0 0 800 600" xmlns="http://www.w3.org/2000/svg">
  <!-- Background -->
  <rect width="800" height="600" fill="#ffffff"/>
  
  <!-- Header -->
  <rect width="800" height="70" fill="#ffffff" stroke="#f0f0f0" stroke-width="1"/>
  <rect x="20" y="20" width="120" height="30" fill="#4A6FFF" rx="4"/>
  <text x="45" y="40" font-family="Arial" font-size="16" fill="white">LOGO</text>
  
  <!-- Navigation -->
  <text x="400" y="40" font-family="Arial" font-size="14" fill="#333333" text-anchor="middle">Home</text>
  <text x="470" y="40" font-family="Arial" font-size="14" fill="#666666" text-anchor="middle">Features</text>
  <text x="540" y="40" font-family="Arial" font-size="14" fill="#666666" text-anchor="middle">Pricing</text>
  <text x="610" y="40" font-family="Arial" font-size="14" fill="#666666" text-anchor="middle">About</text>
  <rect x="670" y="25" width="100" height="36" fill="#4A6FFF" rx="18"/>
  <text x="720" y="47" font-family="Arial" font-size="14" fill="white" text-anchor="middle">Sign Up</text>
  
  <!-- Hero Section -->
  <rect x="0" y="70" width="800" height="380" fill="#f8f9ff"/>
  
  <!-- Hero Content -->
  <text x="100" y="160" font-family="Arial" font-weight="bold" font-size="36" fill="#333333">Transform Your Business</text>
  <text x="100" y="200" font-family="Arial" font-weight="bold" font-size="36" fill="#333333">With Our Platform</text>
  <rect x="100" y="230" width="40" height="6" fill="#4A6FFF" rx="3"/>
  <text x="100" y="270" font-family="Arial" font-size="16" fill="#666666" width="350">Streamline your workflow, increase productivity, and drive growth with our intuitive solution.</text>
  <rect x="100" y="300" width="160" height="50" fill="#4A6FFF" rx="25"/>
  <text x="180" y="330" font-family="Arial" font-size="16" fill="white" text-anchor="middle">Get Started</text>
  <rect x="280" y="300" width="160" height="50" fill="transparent" stroke="#4A6FFF" stroke-width="2" rx="25"/>
  <text x="360" y="330" font-family="Arial" font-size="16" fill="#4A6FFF" text-anchor="middle">Learn More</text>
  
  <!-- Hero Image -->
  <rect x="500" y="130" width="250" height="250" fill="#E8EDFF" rx="10"/>
  <circle cx="625" cy="255" r="90" fill="#4A6FFF" fill-opacity="0.4"/>
  <rect x="560" y="180" width="130" height="150" fill="white" stroke="#ddd" stroke-width="1" rx="4"/>
  <rect x="575" y="200" width="100" height="12" fill="#eee" rx="2"/>
  <rect x="575" y="220" width="70" height="12" fill="#eee" rx="2"/>
  <rect x="575" y="250" width="100" height="60" fill="#eee" rx="2"/>
  
  <!-- Angled Divider -->
  <svg width="800" height="100" y="430">
    <polygon points="0,100 800,0 800,100" fill="white"/>
  </svg>
  
  <!-- Features Section -->
  <rect x="0" y="500" width="800" height="100" fill="white"/>
  
  <!-- Feature Icons -->
  <circle cx="175" cy="550" r="30" fill="#F0F4FF"/>
  <rect x="160" y="535" width="30" height="30" fill="none" stroke="#4A6FFF" stroke-width="2" rx="4"/>
  
  <circle cx="400" cy="550" r="30" fill="#F0F4FF"/>
  <circle cx="400" cy="550" r="15" fill="none" stroke="#4A6FFF" stroke-width="2"/>
  
  <circle cx="625" cy="550" r="30" fill="#F0F4FF"/>
  <polygon points="615,540 635,540 625,560" fill="none" stroke="#4A6FFF" stroke-width="2"/>
</svg>
